HIERARCHY
ROOT Hips
{
	OFFSET 0.000000 0.000000 0.000000
	CHANNELS 6 Xposition Yposition Zposition Zrotation Yrotation Xrotation 
	JOINT LHipJoint
	{
		OFFSET 0.000000 0.000000 0.000000
		CHANNELS 3 Zrotation Yrotation Xrotation
		JOINT LeftUpLeg
		{
			OFFSET 1.363060 -1.794630 0.839290
			CHANNELS 3 Zrotation Yrotation Xrotation
			JOINT LeftLeg
			{
				OFFSET 2.448110 -6.726130 0.000000
				CHANNELS 3 Zrotation Yrotation Xrotation
				JOINT LeftFoot
				{
					OFFSET 2.562200 -7.039590 0.000000
					CHANNELS 3 Zrotation Yrotation Xrotation
					JOINT LeftToeBase
					{
						OFFSET 0.157640 -0.433110 2.322550
						CHANNELS 3 Zrotation Yrotation Xrotation
						End Site
						{
							OFFSET 0.000000 0.000000 0.000000
						}
					}
				}
			}
		}
	}
	JOINT RHipJoint
	{
		OFFSET 0.000000 0.000000 0.000000
		CHANNELS 3 Zrotation Yrotation Xrotation
		JOINT RightUpLeg
		{
			OFFSET -1.305520 -1.794630 0.839290
			CHANNELS 3 Zrotation Yrotation Xrotation
			JOINT RightLeg
			{
				OFFSET -2.542530 -6.985550 0.000000
				CHANNELS 3 Zrotation Yrotation Xrotation
				JOINT RightFoot
				{
					OFFSET -2.568260 -7.056230 0.000000
					CHANNELS 3 Zrotation Yrotation Xrotation
					JOINT RightToeBase
					{
						OFFSET -0.164730 -0.452590 2.363150
						CHANNELS 3 Zrotation Yrotation Xrotation
						End Site
						{
							OFFSET 0.000000 0.000000 0.000000
						}
					}
				}
			}
		}
	}
	JOINT LowerBack
	{
		OFFSET 0.000000 0.000000 0.000000
		CHANNELS 3 Zrotation Yrotation Xrotation
		JOINT Spine
		{
			OFFSET 0.028270 2.035590 -0.193380
			CHANNELS 3 Zrotation Yrotation Xrotation
			JOINT Spine1
			{
				OFFSET 0.056720 2.048850 -0.042750
				CHANNELS 3 Zrotation Yrotation Xrotation
				JOINT Neck
				{
					OFFSET 0.000000 0.000000 0.000000
					CHANNELS 3 Zrotation Yrotation Xrotation
					JOINT Neck1
					{
						OFFSET -0.054170 1.746240 0.172020
						CHANNELS 3 Zrotation Yrotation Xrotation
						JOINT Head
						{
							OFFSET 0.104070 1.761360 -0.123970
							CHANNELS 3 Zrotation Yrotation Xrotation
							End Site
							{
								OFFSET 0.000000 0.000000 0.000000
							}
						}
					}
				}
				JOINT LeftShoulder
				{
					OFFSET 0.000000 0.000000 0.000000
					CHANNELS 3 Zrotation Yrotation Xrotation
					JOINT LeftArm
					{
						OFFSET 3.362410 1.200890 -0.311210
						CHANNELS 3 Zrotation Yrotation Xrotation
						JOINT LeftForeArm
						{
							OFFSET 4.983000 -0.000000 -0.000000
							CHANNELS 3 Zrotation Yrotation Xrotation
							JOINT LeftHand
							{
								OFFSET 3.483560 -0.000000 -0.000000
								CHANNELS 3 Zrotation Yrotation Xrotation
								JOINT LeftFingerBase
								{
									OFFSET 0.000000 0.000000 0.000000
									CHANNELS 3 Zrotation Yrotation Xrotation
									JOINT LeftHandIndex1
									{
										OFFSET 0.715260 -0.000000 -0.000000
										CHANNELS 3 Zrotation Yrotation Xrotation
										End Site
										{
											OFFSET 0.000000 0.000000 0.000000
										}
									}
								}
								JOINT LThumb
								{
									OFFSET 0.000000 0.000000 0.000000
									CHANNELS 3 Zrotation Yrotation Xrotation
									End Site
									{
										OFFSET 0.000000 0.000000 0.000000
									}
								}
							}
						}
					}
				}
				JOINT RightShoulder
				{
					OFFSET 0.000000 0.000000 0.000000
					CHANNELS 3 Zrotation Yrotation Xrotation
					JOINT RightArm
					{
						OFFSET -3.136600 1.374050 -0.404650
						CHANNELS 3 Zrotation Yrotation Xrotation
						JOINT RightForeArm
						{
							OFFSET -5.241900 -0.000000 -0.000000
							CHANNELS 3 Zrotation Yrotation Xrotation
							JOINT RightHand
							{
								OFFSET -3.444170 -0.000000 -0.000000
								CHANNELS 3 Zrotation Yrotation Xrotation
								JOINT RightFingerBase
								{
									OFFSET 0.000000 0.000000 0.000000
									CHANNELS 3 Zrotation Yrotation Xrotation
									JOINT RightHandIndex1
									{
										OFFSET -0.622530 -0.000000 -0.000000
										CHANNELS 3 Zrotation Yrotation Xrotation
										End Site
										{
											OFFSET 0.000000 0.000000 0.000000
										}
									}
								}
								JOINT RThumb
								{
									OFFSET 0.000000 0.000000 0.000000
									CHANNELS 3 Zrotation Yrotation Xrotation
									End Site
									{
										OFFSET 0.000000 0.000000 0.000000
									}
								}
							}
						}
					}
				}
			}
		}
	}
}
MOTION
Frames: 6
Frame Time: 0.008333
3.072290 16.821172 -1.662294 17.917108 -86.140299 -26.973887 -10.443819 3.469315 -0.374288 1.621647 23.955927 -18.426278 -0.787654 2.344341 42.494917 1.146419 7.156575 3.886063 1.022600 0.000000 -60.299700 11.074160 -1.908526 -1.592166 4.122691 -22.003186 -1.267943 1.389825 -0.976032 26.563693 -1.457543 -5.215724 -14.637748 0.823200 0.000000 -58.072501 -3.461518 -3.290011 -1.075749 -0.981613 -3.119315 -2.569534 -4.233223 -3.137133 1.899326 9.442028 -23.417466 -8.966256 -0.973762 -0.056666 -0.292374 0.000000 0.000000 0.000000 3.989473 18.278756 -0.325070 -65.280976 21.148489 2.431625 -3.102935 -41.942620 0.005194 -2.024321 -1.516230 0.026555 -0.105599 0.025224 -0.000000 0.000000 0.000000 0.000000 0.000000 0.000000 0.000000 9.812243 -19.712504 -1.130612 69.528674 -14.056168 2.464547 2.491464 43.885310 0.013419 0.575064 6.643625 0.029309 0.092785 -0.108029 -0.000000 0.000000 0.000000 0.000000 0.000000 0.000000 0.000000 
3.097286 16.829365 -1.712645 15.976026 -85.862678 -25.048944 -10.440838 3.355416 -0.463942 1.506951 24.511987 -20.408159 -0.648337 2.495504 44.726409 1.254789 7.604826 5.582939 1.263100 0.000000 -59.346200 11.030688 -1.897053 -1.571842 4.439011 -22.102898 -1.192346 1.384624 -0.925516 26.208560 -1.486365 -5.386937 -14.575800 0.834200 0.000000 -57.591300 -3.671970 -3.294455 -1.018883 -1.037733 -3.114415 -2.559985 -4.283280 -3.129779 1.877209 9.578254 -23.470383 -8.973999 -0.975375 -0.056538 -0.294025 0.000000 0.000000 0.000000 4.288977 17.953102 -0.330146 -65.076183 21.140224 2.564694 -3.083667 -42.112701 0.005131 -2.066124 -1.488971 0.026649 -0.104100 0.025784 -0.000000 0.000000 0.000000 0.000000 0.000000 0.000000 0.000000 9.931641 -19.761631 -1.107356 69.585118 -13.794536 2.465317 2.469802 43.985841 0.013340 0.445831 6.682076 0.021820 0.093354 -0.109890 -0.000000 0.000000 0.000000 0.000000 0.000000 0.000000 0.000000 
3.123761 16.837208 -1.762733 14.213657 -85.550712 -23.298374 -10.419495 3.220277 -0.560005 1.295012 25.040916 -22.482231 -0.510418 2.647925 47.016939 1.384462 8.199635 7.219565 1.550800 0.000000 -58.139800 10.990942 -1.881688 -1.556965 4.753674 -22.205282 -1.141177 1.376503 -0.877859 25.883379 -1.521417 -5.596110 -14.516484 0.848100 -0.000000 -57.122300 -3.898177 -3.299329 -0.943273 -1.097257 -3.109164 -2.547611 -4.335480 -3.121961 1.851946 9.721017 -23.517662 -8.989288 -0.974636 -0.056059 -0.297795 0.000000 0.000000 0.000000 4.610082 17.596433 -0.333866 -64.907548 21.158427 2.704878 -3.061272 -42.322255 0.005065 -2.104376 -1.460631 0.026743 -0.102450 0.026424 -0.000000 0.000000 0.000000 0.000000 0.000000 0.000000 0.000000 10.044215 -19.804976 -1.075870 69.681906 -13.512882 2.442772 2.451414 44.049445 0.013256 0.335229 6.706394 0.015229 0.093850 -0.111584 -0.000000 0.000000 0.000000 0.000000 0.000000 0.000000 0.000000 
3.151626 16.844506 -1.812280 12.658412 -85.209198 -21.755786 -10.378138 3.068738 -0.664366 0.981989 25.541491 -24.627167 -0.377911 2.803402 49.351857 1.528181 8.917277 8.722467 1.884300 0.000000 -56.753800 10.957162 -1.861895 -1.549095 5.059428 -22.308273 -1.107145 1.365043 -0.833635 25.589731 -1.562477 -5.841387 -14.461461 0.865000 -0.000000 -56.659900 -4.138298 -3.305110 -0.844968 -1.159721 -3.104189 -2.531647 -4.389115 -3.114263 1.823520 9.866141 -23.555103 -9.009999 -0.971952 -0.055292 -0.303202 0.000000 0.000000 0.000000 4.947299 17.218923 -0.336641 -64.769442 21.203562 2.863719 -3.035207 -42.578582 0.004995 -2.138862 -1.431627 0.026735 -0.100632 0.027129 -0.000000 0.000000 0.000000 0.000000 0.000000 0.000000 0.000000 10.147765 -19.838517 -1.037943 69.812991 -13.211779 2.409611 2.435556 44.081103 0.013159 0.243327 6.713799 0.009738 0.094243 -0.113088 -0.000000 0.000000 0.000000 0.000000 0.000000 0.000000 0.000000 
3.180535 16.851259 -1.860917 11.317298 -84.851885 -20.425298 -10.317395 2.905889 -0.777970 0.567323 26.022004 -26.833848 -0.252637 2.964017 51.718643 1.678171 9.725910 10.032958 2.254800 0.000000 -55.345800 10.928694 -1.839038 -1.543344 5.363395 -22.388321 -1.094324 1.349779 -0.793582 25.334060 -1.611439 -6.131205 -14.415582 0.886000 -0.000001 -56.197300 -4.385092 -3.309424 -0.729476 -1.223658 -3.097584 -2.513236 -4.443587 -3.104845 1.792169 10.008155 -23.579387 -9.032904 -0.967860 -0.054346 -0.309376 0.000000 0.000000 0.000000 5.291127 16.830173 -0.339428 -64.655143 21.278873 3.049942 -3.005253 -42.887935 0.004923 -2.172555 -1.403304 0.026627 -0.098624 0.027852 -0.000000 0.000000 0.000000 0.000000 0.000000 0.000000 0.000000 10.238297 -19.857623 -0.995125 69.969764 -12.894338 2.376026 2.421987 44.086602 0.013053 0.172593 6.703995 0.005545 0.094504 -0.114398 -0.000000 0.000000 0.000000 0.000000 0.000000 0.000000 0.000000 
3.210699 16.857256 -1.908892 10.241419 -84.478255 -19.375451 -10.235384 2.740027 -0.907215 0.048096 26.487433 -29.070056 -0.134823 3.133301 54.106288 1.825141 10.578799 11.087314 2.640300 0.000000 -53.837100 10.912464 -1.810317 -1.547440 5.634579 -22.465642 -1.075755 1.330287 -0.757852 25.109234 -1.664397 -6.444077 -14.377580 0.909000 0.000000 -55.713400 -4.649408 -3.314167 -0.581120 -1.291587 -3.090746 -2.488931 -4.499122 -3.094796 1.758405 10.148574 -23.589288 -9.056261 -0.963266 -0.053301 -0.316065 0.000000 0.000000 0.000000 5.643398 16.443936 -0.342700 -64.557359 21.375590 3.273204 -2.971389 -43.249172 0.004849 -2.207815 -1.376287 0.026619 -0.096380 0.028571 -0.000000 0.000000 0.000000 0.000000 0.000000 0.000000 0.000000 10.323697 -19.862480 -0.950536 70.144068 -12.556183 2.364479 2.409121 44.072532 0.012928 0.117521 6.677083 0.002251 0.094621 -0.115516 -0.000000 0.000000 0.000000 0.000000 0.000000 0.000000 0.000000 
